<?xml version="1.0" standalone="no"?>
<!DOCTYPE svg PUBLIC "-//W3C//DTD SVG 20010904//EN"
 "http://www.w3.org/TR/2001/REC-SVG-20010904/DTD/svg10.dtd">
<svg version="1.0" xmlns="http://www.w3.org/2000/svg"
 width="400.000000pt" height="400.000000pt" viewBox="0 0 400.000000 400.000000"
 preserveAspectRatio="xMidYMid meet">
<metadata>
Created by potrace 1.11, written by Peter Selinger 2001-2013
</metadata>
<g transform="translate(0.000000,400.000000) scale(0.100000,-0.100000)"
fill="#6F4E37" stroke="none">
<path d="M2002 3338 c-20 -20 -14 -56 13 -74 23 -15 27 -15 50 0 44 29 28 86
-25 86 -14 0 -31 -5 -38 -12z"/>
<path d="M2190 3322 c-29 -9 -60 -46 -60 -72 0 -64 90 -94 129 -44 26 33 26
54 1 86 -21 27 -46 38 -70 30z"/>
<path d="M1550 3267 c-51 -16 -135 -103 -150 -154 -19 -62 -7 -91 45 -114 50
-22 53 -28 27 -52 -47 -43 -134 -8 -207 84 -78 98 -138 124 -171 74 -14 -21
-14 -30 -4 -55 7 -17 9 -34 5 -38 -3 -4 -55 -7 -113 -7 -129 -1 -184 -21 -256
-94 -47 -48 -48 -49 -61 -148 -7 -55 -18 -109 -23 -120 -6 -11 -34 -37 -61
-58 -65 -50 -84 -90 -79 -165 6 -84 49 -164 107 -202 50 -32 49 -32 288 -12
48 4 112 0 186 -11 109 -16 116 -16 151 0 29 14 43 30 61 71 40 90 114 195
190 271 79 77 109 97 167 107 22 4 56 23 83 46 35 31 61 42 122 56 157 37 408
14 468 -41 15 -14 38 -25 54 -25 43 0 145 -56 187 -103 21 -23 50 -50 65 -59
41 -25 110 -118 163 -218 62 -117 63 -118 141 -97 88 23 141 21 237 -10 109
-35 178 -36 212 -4 34 32 65 101 83 185 12 57 12 86 4 144 -24 163 -147 368
-252 422 -20 11 -46 35 -57 54 -16 27 -29 36 -59 41 -63 11 -89 25 -122 66
-38 46 -59 58 -166 92 -177 57 -241 56 -440 -4 -55 -17 -134 -33 -175 -36 -72
-5 -81 -3 -215 46 -77 27 -167 57 -200 66 -68 17 -183 18 -235 2z"/>
<path d="M1926 2574 c-83 -18 -181 -61 -247 -109 -26 -19 -79 -50 -116 -69
-77 -38 -87 -52 -108 -151 -8 -38 -24 -104 -35 -145 -30 -105 -24 -252 14
-365 32 -95 132 -261 184 -306 84 -74 301 -153 401 -147 l46 3 -75 28 c-90 35
-153 68 -152 82 0 13 68 36 86 29 7 -3 18 -15 23 -27 7 -15 36 -32 84 -52 59
-23 90 -29 154 -29 70 -1 92 4 175 37 52 21 129 62 170 90 l75 52 6 55 c3 31
20 84 38 121 41 87 65 212 57 305 -7 86 -61 257 -119 372 -13 27 -197 154
-274 189 -111 51 -256 65 -387 37z m184 -117 c-41 -13 -102 -33 -135 -46 -33
-13 -72 -28 -88 -33 -50 -19 -169 -219 -233 -393 -19 -49 -41 -96 -51 -102
-45 -34 -83 3 -83 82 0 141 91 314 191 365 20 11 39 26 42 34 8 21 98 66 187
92 52 16 101 23 160 23 l85 0 -75 -22z m-272 -964 c2 -14 -5 -27 -22 -39 -24
-15 -28 -15 -51 0 -45 30 -21 68 40 63 22 -1 31 -8 33 -24z"/>
<path d="M3580 2140 c-24 -24 -26 -57 -4 -88 20 -28 83 -31 107 -4 22 25 21
75 -1 95 -25 23 -78 21 -102 -3z"/>
<path d="M2980 2070 c-86 -18 -111 -45 -96 -105 10 -39 -12 -191 -40 -275 -18
-56 -34 -83 -59 -105 -26 -22 -37 -42 -44 -77 -20 -109 -207 -280 -384 -351
-202 -81 -444 -70 -651 28 -95 45 -118 64 -155 130 -22 39 -46 65 -79 85 -26
16 -59 38 -74 50 -62 48 -125 45 -147 -8 -15 -36 -51 -48 -89 -30 -21 10 -28
21 -30 49 -4 52 31 79 105 79 64 0 70 10 47 71 -11 31 -18 93 -23 212 -6 162
-7 170 -30 188 -28 23 -80 24 -147 4 -70 -21 -103 -19 -170 12 -84 38 -181 38
-245 1 -25 -15 -58 -43 -73 -63 -32 -41 -38 -42 -77 -14 -20 14 -38 19 -54 15
-49 -12 -135 -180 -107 -208 8 -8 21 -4 49 16 143 102 132 96 165 83 18 -7 40
-24 50 -38 17 -23 18 -28 3 -68 -8 -24 -42 -84 -75 -134 -74 -112 -75 -131
-16 -195 66 -71 70 -84 46 -131 -11 -22 -20 -49 -20 -60 0 -23 126 -177 203
-247 118 -108 234 -112 437 -15 72 34 142 41 188 17 33 -18 76 -63 131 -138
48 -67 74 -86 133 -100 53 -12 82 8 118 78 22 44 29 49 62 52 49 4 90 -18 168
-94 36 -35 82 -70 103 -79 76 -31 165 -14 337 65 148 68 181 76 240 55 23 -8
55 -15 70 -15 35 0 70 38 70 76 0 32 -24 74 -43 74 -7 0 -36 11 -65 25 -64 30
-85 64 -57 95 20 22 84 27 129 11 37 -15 87 -72 131 -153 36 -65 44 -73 70
-73 31 0 34 4 103 120 43 71 92 104 166 112 31 3 61 12 68 20 6 8 12 41 13 74
1 32 4 61 6 64 3 2 42 15 86 28 146 42 177 79 169 199 -5 79 -24 139 -47 154
-8 4 -38 11 -68 15 -33 5 -62 15 -74 28 -22 22 -24 19 28 36 8 2 15 15 15 28
0 16 10 29 33 40 17 10 47 28 65 40 18 12 47 31 65 42 60 38 44 135 -23 135
-43 0 -80 -35 -80 -76 0 -19 -4 -34 -8 -34 -5 0 -26 29 -47 66 -21 36 -47 70
-57 75 -12 7 -43 7 -94 0 -77 -11 -125 -6 -201 23 -54 20 -83 24 -123 16z"/>
<path d="M274 1715 c-15 -23 -15 -27 0 -50 10 -15 26 -25 41 -25 15 0 31 10
41 25 15 23 15 27 0 50 -22 33 -60 33 -82 0z"/>
<path d="M350 1490 c-43 -43 -14 -110 47 -110 38 0 63 27 63 68 0 56 -70 82
-110 42z"/>
<path d="M3347 1082 c-36 -40 -9 -102 44 -102 39 0 62 23 62 60 0 55 -70 82
-106 42z"/>
<path d="M1812 747 c-45 -48 -17 -117 47 -117 46 0 71 24 71 68 0 65 -74 96
-118 49z"/>
</g>
</svg>
