<?xml version="1.0" standalone="no"?>
<!DOCTYPE svg PUBLIC "-//W3C//DTD SVG 20010904//EN"
 "http://www.w3.org/TR/2001/REC-SVG-20010904/DTD/svg10.dtd">
<svg version="1.0" xmlns="http://www.w3.org/2000/svg"
 width="512.000000pt" height="512.000000pt" viewBox="0 0 512.000000 512.000000"
 preserveAspectRatio="xMidYMid meet">
<metadata>
Created by potrace 1.11, written by Peter Selinger 2001-2013
</metadata>
<g transform="translate(0.000000,512.000000) scale(0.100000,-0.100000)"
fill="#FFFFFF" stroke="none">
<path d="M2075 3680 l0 -480 -392 0 c-310 0 -391 -3 -387 -12 3 -7 27 -30 52
-52 44 -36 151 -132 282 -252 68 -62 128 -116 156 -141 12 -10 63 -56 114
-103 51 -47 102 -93 114 -103 12 -10 59 -53 105 -95 115 -104 118 -107 207
-187 43 -38 85 -77 94 -85 65 -62 133 -120 140 -120 5 0 15 6 22 13 7 7 60 55
118 107 58 52 110 99 116 104 6 6 48 45 94 86 46 41 93 84 106 95 12 11 59 54
105 95 45 41 87 80 93 85 6 6 54 48 106 95 52 47 97 87 100 90 3 3 98 90 212
193 l208 187 -400 0 -400 0 0 480 0 480 -482 0 -483 0 0 -480z"/>
<path d="M1045 2598 c-71 -56 -229 -178 -350 -270 -300 -230 -309 -238 -342
-305 -24 -50 -28 -69 -27 -143 0 -47 3 -103 6 -125 4 -22 10 -65 13 -95 3 -30
8 -64 10 -75 2 -11 7 -42 10 -70 12 -99 26 -210 30 -235 2 -14 6 -47 10 -75
13 -123 57 -189 148 -224 51 -20 78 -20 2017 -18 l1965 2 49 23 c86 39 116 94
135 247 6 44 17 132 26 195 9 63 18 135 21 160 3 25 11 88 18 140 20 138 15
223 -17 290 -33 69 -35 72 -297 271 -118 90 -226 174 -240 186 -14 13 -28 23
-32 23 -3 0 -13 6 -20 13 -7 7 -42 35 -78 62 -36 28 -67 52 -70 55 -3 3 -25
20 -49 37 l-44 32 -209 1 -209 0 306 -305 c168 -168 305 -307 305 -310 0 -3
-116 -5 -258 -5 -191 0 -262 -3 -275 -12 -14 -12 -53 -100 -164 -380 -19 -49
-38 -88 -41 -89 -33 -5 -1656 -2 -1664 3 -9 5 -101 214 -112 253 -2 6 -8 21
-13 35 -6 14 -22 54 -37 89 -44 108 -20 101 -324 101 l-264 0 312 310 311 310
-213 -1 -213 0 -130 -101z"/>
</g>
</svg>
